{"title":"Fabolous - Lights Out [KingPinVideos]","uid":5817684,"size":76478057,"categoryP":"video","categoryS":"music_videos","magnet":"?xt=urn:btih:fd7d8b3a7cc0ad632d8a14476b441f3a6a3f3c23&amp;dn=Fabolous+-+Lights+Out+%5BKingPinVideos%5D&amp;tr=udp%3A%2F%2Ftracker.openbittorrent.com%3A80&amp;tr=udp%3A%2F%2Fopen.demonii.com%3A1337&amp;tr=udp%3A%2F%2Ftracker.coppersurfer.tk%3A6969&amp;tr=udp%3A%2F%2Fexodus.desync.com%3A6969","seeders":0,"leechers":0,"uploader":"KingPinMan","files":5,"time":1283923743,"description":"[img]http://a.imageshack.us/img830/1192/fabolouslights.png[/img]\n\n[img]http://a.imageshack.us/img709/5757/fabolouslights2.png[/img]\n\n[code]General\nComplete name                    : Fabolous - Lights Out [KingPinVideos].mpg\nFormat                           : MPEG-PS\nFile size                        : 72.9 MiB\nDuration                         : 3mn 37s\nOverall bit rate                 : 2 813 Kbps\nWriting library                  : encoded by TMPGEnc 4.0 XPress Version. 4.7.4.299\n\nVideo\nID                               : 224 (0xE0)\nFormat                           : MPEG Video\nFormat version                   : Version 1\nFormat settings, BVOP            : Yes\nFormat settings, Matrix          : Default\nDuration                         : 3mn 37s\nBit rate mode                    : Variable\nBit rate                         : 2 573 Kbps\nNominal bit rate                 : 2 700 Kbps\nWidth                            : 384 pixels\nHeight                           : 208 pixels\nDisplay aspect ratio             : 16:9\nFrame rate                       : 29.970 fps\nResolution                       : 8 bits\nScan type                        : Progressive\nBits/(Pixel*Frame)               : 1.075\nStream size                      : 66.7 MiB (91%)\nWriting library                  : TMPGEnc XPress 4.7.4.299\n\nAudio\nID                               : 192 (0xC0)\nFormat                           : MPEG Audio\nFormat version                   : Version 1\nFormat profile                   : Layer 2\nDuration                         : 3mn 37s\nBit rate mode                    : Constant\nBit rate                         : 128 Kbps\nChannel(s)                       : 2 channels\nSampling rate                    : 48.0 KHz\nStream size                      : 3.32 MiB (5%)[/code]","torrent":{"xt":"urn:btih:fd7d8b3a7cc0ad632d8a14476b441f3a6a3f3c23","amp;dn":"Fabolous+-+Lights+Out+%5BKingPinVideos%5D","amp;tr":["udp%3A%2F%2Ftracker.openbittorrent.com%3A80","udp%3A%2F%2Fopen.demonii.com%3A1337","udp%3A%2F%2Ftracker.coppersurfer.tk%3A6969","udp%3A%2F%2Fexodus.desync.com%3A6969"],"infoHash":"fd7d8b3a7cc0ad632d8a14476b441f3a6a3f3c23","infoHashBuffer":{"type":"Buffer","data":[253,125,139,58,124,192,173,99,45,138,20,71,107,68,31,58,106,63,60,35]},"announce":[],"urlList":[]}}